<svg width="20" height="18" viewBox="0 0 20 18" fill="none" xmlns="http://www.w3.org/2000/svg">
<mask id="path-1-outside-1_775_261" maskUnits="userSpaceOnUse" x="0" y="0" width="20" height="18" fill="black">
<rect fill="white" width="20" height="18"/>
<path d="M17.6074 2.41703C16.679 1.47234 15.4622 1 14.2452 1C13.0284 1 11.8116 1.47234 10.8832 2.41703L10 3.31572L9.1168 2.41703C8.1884 1.47234 6.9716 1 5.7548 1C4.5378 1 3.321 1.47234 2.3926 2.41703C0.5358 4.30639 0.5358 7.3698 2.3926 9.25917L10 17L17.6074 9.25917C19.4642 7.3698 19.4642 4.30639 17.6074 2.41703Z"/>
</mask>
<path d="M10.8832 2.41703L10.4646 2.00565V2.00566L10.8832 2.41703ZM10 3.31572L9.58141 3.72709L10 4.15302L10.4186 3.72709L10 3.31572ZM9.1168 2.41703L9.53539 2.00566V2.00565L9.1168 2.41703ZM2.3926 9.25917L2.81119 8.8478L2.3926 9.25917ZM10 17L9.58141 17.4114L10 17.8373L10.4186 17.4114L10 17ZM17.6074 9.25917L18.026 9.67054L17.6074 9.25917ZM18.026 2.00565C16.9839 0.94526 15.6147 0.413109 14.2452 0.413109V1.58689C15.3097 1.58689 16.3741 1.99942 17.1888 2.8284L18.026 2.00565ZM14.2452 0.413109C12.8758 0.413109 11.5067 0.94527 10.4646 2.00565L11.3018 2.8284C12.1165 1.99941 13.181 1.58689 14.2452 1.58689V0.413109ZM10.4646 2.00566L9.58141 2.90435L10.4186 3.72709L11.3018 2.8284L10.4646 2.00566ZM10.4186 2.90435L9.53539 2.00566L8.69821 2.8284L9.58141 3.72709L10.4186 2.90435ZM9.53539 2.00565C8.49328 0.94527 7.12416 0.413109 5.7548 0.413109V1.58689C6.81904 1.58689 7.88352 1.99941 8.69821 2.8284L9.53539 2.00565ZM5.7548 0.413109C4.38526 0.413109 3.01613 0.945261 1.97401 2.00565L2.81119 2.8284C3.62587 1.99942 4.69034 1.58689 5.7548 1.58689V0.413109ZM1.97401 2.00565C-0.107192 4.12336 -0.107192 7.55283 1.97401 9.67054L2.81119 8.8478C1.17879 7.18677 1.17879 4.48942 2.81119 2.8284L1.97401 2.00565ZM1.97401 9.67054L9.58141 17.4114L10.4186 16.5886L2.81119 8.8478L1.97401 9.67054ZM10.4186 17.4114L18.026 9.67054L17.1888 8.8478L9.58141 16.5886L10.4186 17.4114ZM18.026 9.67054C20.1072 7.55283 20.1072 4.12336 18.026 2.00565L17.1888 2.8284C18.8212 4.48942 18.8212 7.18677 17.1888 8.8478L18.026 9.67054Z" fill="#D9D9D9" mask="url(#path-1-outside-1_775_261)"/>
</svg>
